ffmpeg started on 2023-02-26 at 18:48:06
Report written to "D:/java/GitHub/pornMagnetSpringBoot/jiuse911Modeul/Logs/2023-02-26_18-47-16-907_ffreport.log"
Command line:
"D:\\java\\GitHub\\pornMagnetSpringBoot\\ffmpeg.exe" -loglevel warning -i "concat:00.ts|01.ts|02.ts|03.ts|04.ts|05.ts|06.ts|07.ts|08.ts|09.ts|10.ts|11.ts|12.ts|13.ts|14.ts|15.ts|16.ts|17.ts|18.ts|19.ts|20.ts|21.ts|22.ts|23.ts|24.ts|25.ts|26.ts|27.ts|28.ts|29.ts|30.ts|31.ts|32.ts|33.ts|34.ts|35.ts|36.ts|37.ts|38.ts|" -map "0:v?" -map "0:a?" -map "0:s?" -metadata "date=2023-02-26T18:48:06.7859591+08:00" -metadata "encoding_tool=" -metadata "title=" -metadata "copyright=" -metadata "comment=" -metadata:s:a:0 "handler_name=" -metadata:s:a:0 "handler=" -c copy -y -bsf:a aac_adtstoasc "D:\\java\\GitHub\\pornMagnetSpringBoot\\Downloads\\\xa1\xb0\xc4\xe3\xbf\xec\xc9\xe4\xa3\xac\xce\xd2\xc4\xd0\xc5\xf3\xd3\xd1\xbb\xb9\xd4\xda\xbe\xc6\xb5\xea\xb5\xc8\xce\xd2\xa1\xb1\xcf\xa3\xcd\xfb\xc4\xc7\xb8\xf6\xb4\xf3\xd4\xb9\xd6\xd6\xc3\xbb\xcc\xf2\xc4\xe3\xc5\xae\xd3\xd1\xb5\xc4b.mp4"
ffmpeg version N-94813-g85386c36e3-ffmpeg-for-N_m3u8DL-CLI Copyright (c) 2000-2019 the FFmpeg developers
  built with gcc 8.2.0 (GCC)
  libavutil      56. 35.100 / 56. 35.100
  libavcodec     58. 56.101 / 58. 56.101
  libavformat    58. 32.104 / 58. 32.104
  libavfilter     7. 58.102 /  7. 58.102
  libavresample   4.  0.  0 /  4.  0.  0
  libswresample   3.  6.100 /  3.  6.100
Input #0, mpegts, from 'concat:00.ts|01.ts|02.ts|03.ts|04.ts|05.ts|06.ts|07.ts|08.ts|09.ts|10.ts|11.ts|12.ts|13.ts|14.ts|15.ts|16.ts|17.ts|18.ts|19.ts|20.ts|21.ts|22.ts|23.ts|24.ts|25.ts|26.ts|27.ts|28.ts|29.ts|30.ts|31.ts|32.ts|33.ts|34.ts|35.ts|36.ts|37.ts|38.ts|':
  Duration: 00:06:24.26, start: 1.443444, bitrate: 1145 kb/s
  Program 1 
    Metadata:
      service_name    : Service01
      service_provider: FFmpeg
    Stream #0:0[0x100]: Video: h264 ([27][0][0][0] / 0x001B), yuv420p(progressive), 600x348, 30 fps, 30 tbr, 90k tbn, 60 tbc
    Stream #0:1[0x101](eng): Audio: aac ([15][0][0][0] / 0x000F), 44100 Hz, stereo, fltp, 4 kb/s
Output #0, mp4, to 'D:\java\GitHub\pornMagnetSpringBoot\Downloads\“你快射，我男朋友还在酒店等我”希望那个大怨种没舔你女友的b.mp4':
  Metadata:
    date            : 2023-02-26T18:48:06.7859591+08:00
    encoder         : Lavf58.32.104
    Stream #0:0: Video: h264 (avc1 / 0x31637661), yuv420p(progressive), 600x348, q=2-31, 30 fps, 30 tbr, 90k tbn, 90k tbc
    Stream #0:1(eng): Audio: aac (mp4a / 0x6134706D), 44100 Hz, stereo, fltp, 4 kb/s
Stream mapping:
  Stream #0:0 -> #0:0 (copy)
  Stream #0:1 -> #0:1 (copy)
Press [q] to stop, [?] for help
frame=11527 fps=0.0 q=-1.0 Lsize=   51338kB time=00:06:24.26 bitrate=1094.5kbits/s speed=2.45e+03x    
video:45253kB audio:5708kB subtitle:0kB other streams:0kB global headers:0kB muxing overhead: 0.739317%
